<svg width="394" height="328" xmlns="http://www.w3.org/2000/svg" xmlns:xlink="http://www.w3.org/1999/xlink" xml:space="preserve" overflow="hidden"><defs><linearGradient x1="248.007" y1="311.392" x2="321.44" y2="-120.303" gradientUnits="userSpaceOnUse" spreadMethod="pad" id="fill0"><stop offset="0" stop-color="#156CDD"/><stop offset="0.5" stop-color="#0795FF"/><stop offset="1" stop-color="#73C3FF"/></linearGradient><linearGradient x1="228.948" y1="326.707" x2="241.558" y2="6.27411" gradientUnits="userSpaceOnUse" spreadMethod="pad" id="fill1"><stop offset="0" stop-color="#156CDD"/><stop offset="0.5" stop-color="#0795FF"/><stop offset="1" stop-color="#73C3FF"/></linearGradient><linearGradient x1="200.977" y1="332.193" x2="192.075" y2="124.506" gradientUnits="userSpaceOnUse" spreadMethod="pad" id="fill2"><stop offset="0" stop-color="#156CDD"/><stop offset="0.5" stop-color="#0795FF"/><stop offset="1" stop-color="#73C3FF"/></linearGradient><linearGradient x1="292.961" y1="471.511" x2="117.91" y2="191.873" gradientUnits="userSpaceOnUse" spreadMethod="pad" id="fill3"><stop offset="0" stop-color="#156CDD"/><stop offset="0.5" stop-color="#0795FF"/><stop offset="1" stop-color="#73C3FF"/></linearGradient></defs><g transform="translate(-384 -1297)"><path d="M359.991 196.188 199.282 0 199.282 5.93868e-05C159.316 32.7383 153.457 91.6766 186.195 131.642L346.904 327.831 346.904 327.831C386.87 295.093 392.729 236.154 359.991 196.188Z" fill="url(#fill0)" transform="matrix(1.00296 0 0 1 384.153 1297.1)"/><path d="M326.631 197.102 121.94 47.3734 121.94 47.3735C91.4382 89.0714 100.515 147.601 142.213 178.102L346.904 327.831 346.904 327.831C377.406 286.133 368.329 227.604 326.631 197.102Z" fill="url(#fill1)" transform="matrix(1.00296 0 0 1 384.153 1297.1)"/><path d="M287.192 209.783 46.2268 130.705 46.2268 130.705C30.1178 179.793 56.852 232.645 105.939 248.754L346.904 327.831 346.904 327.831C363.013 278.744 336.279 225.892 287.192 209.783Z" fill="url(#fill2)" transform="matrix(1.00296 0 0 1 384.153 1297.1)"/><path d="M253.608 234.04 0.000334823 233.369 0.000334594 233.369C-0.136365 285.031 41.6338 327.023 93.2965 327.16L346.904 327.831 346.904 327.831C347.041 276.168 305.271 234.176 253.608 234.04Z" fill="url(#fill3)" transform="matrix(1.00296 0 0 1 384.153 1297.1)"/></g></svg>